<svg width="30" height="30" viewBox="0 0 30 30" fill="none" xmlns="http://www.w3.org/2000/svg">
<path d="M23.8477 13.6211H19.0156V11.0469H23.8477H24.3477V10.5469V5.27344V4.77344H23.8477H18.5156C15.3315 4.77344 12.7422 7.36279 12.7422 10.5469V13.6211H9.72656H9.22656V14.1211V19.3945V19.8945H9.72656H12.7422V29.5H4.39453C2.24773 29.5 0.5 27.7523 0.5 25.6055V4.39453C0.5 2.24773 2.24773 0.5 4.39453 0.5H25.6055C27.7523 0.5 29.5 2.24773 29.5 4.39453V25.6055C29.5 27.7523 27.7523 29.5 25.6055 29.5H19.0156V19.8945H22.9688H23.3923L23.4619 19.4767L24.3409 14.2033L24.4379 13.6211H23.8477Z" fill="#21243D" stroke="black"/>
</svg>
